<?xml version="1.0" encoding="UTF-8"?>
<svg xmlns="http://www.w3.org/2000/svg" id="Layer_1" data-name="Layer 1" viewBox="0 0 24 24">
  <path d="m8,12c3.309,0,6-2.691,6-6S11.309,0,8,0,2,2.691,2,6s2.691,6,6,6Zm0-9c1.654,0,3,1.346,3,3s-1.346,3-3,3-3-1.346-3-3,1.346-3,3-3Zm-3,11h5v3h-5c-1.103,0-2,.897-2,2v5H0v-5c0-2.757,2.243-5,5-5Zm17.5,4c0-.279-.034-.549-.082-.814l1.53-.881-1.497-2.6-1.543.889c-.413-.353-.885-.632-1.407-.818v-1.776h-3v1.776c-.522.186-.994.464-1.407.818l-1.543-.889-1.497,2.6,1.53.881c-.049.265-.082.535-.082.814s.034.549.082.814l-1.53.881,1.497,2.6,1.543-.889c.413.353.885.632,1.407.818v1.776h3v-1.776c.522-.186.994-.464,1.407-.818l1.543.889,1.497-2.6-1.53-.881c.049-.265.082-.535.082-.814Zm-4.5,1.5c-.827,0-1.5-.673-1.5-1.5s.673-1.5,1.5-1.5,1.5.673,1.5,1.5-.673,1.5-1.5,1.5Z"/>
</svg>
